#!OML:ASF H:\LiuWeirdWalks\Patient Classification 1\Patient 1\Session 1\male.ASF
:FULLY-SPECIFIED
:DEGREES
791
root 2.33161 18.0984 -8.06953 4.64155 4.32969 -6.15078
lowerback 8.864 -0.287219 -6.84895
upperback 0.144031 -1.07064 0.214116
thorax -4.70319 -0.371011 4.21756
lowerneck -21.6285 -0.0024942 6.39071
upperneck 18.9922 -1.4175 -2.81305
head 9.50256 -0.517005 -2.23228
rclavicle -1.98785e-016 3.18055e-015
rhumerus -11.3911 -28.2148 -8.17407
rradius 31.402
rwrist -0.0724327
rhand -20.6805 -7.11754
rfingers 7.12502
rthumb 5.68279 -37.0213
lclavicle -1.98785e-016 3.18055e-015
lhumerus -23.8735 28.4857 23.8191
lradius 38.4811
lwrist 8.67682
lhand -19.8782 -4.02806
lfingers 7.12502
lthumb 6.45743 25.8535
rfemur -14.269 -11.745 17.9899
rtibia 54.7516
rfoot -7.76518 -20.0778
rtoes -2.70688
lfemur -9.26709 -1.29578 -15.8594
ltibia 28.4286
lfoot -13.8482 17.9321
ltoes -10.3134
792
root 2.33853 18.0873 -8.04313 4.6226 4.27329 -5.9677
lowerback 8.90857 -0.265502 -6.89715
upperback 0.130408 -1.04844 0.262378
thorax -4.74376 -0.356576 4.29393
lowerneck -21.5655 0.00703713 6.40345
upperneck 18.9106 -1.37293 -2.94404
head 9.46322 -0.512328 -2.27202
rclavicle 1.78906e-015 -6.36111e-015
rhumerus -11.3439 -28.2828 -8.30797
rradius 31.3735
rwrist -0.0202103
rhand -20.7441 -7.18584
rfingers 7.12502
rthumb 5.62146 -37.0913
lclavicle 1.78906e-015 -6.36111e-015
lhumerus -23.7649 28.5676 23.5768
lradius 38.5171
lwrist 8.71467
lhand -19.9103 -3.99877
lfingers 7.12502
lthumb 6.42645 25.8837
rfemur -14.9553 -11.8691 17.8648
rtibia 54.4249
rfoot -8.4826 -20.175
rtoes -3.0625
lfemur -9.03483 -1.31703 -16.0939
ltibia 28.2851
lfoot -13.9983 18.0029
ltoes -10.1942
793
root 2.34551 18.0762 -8.01661 4.60918 4.23103 -5.76663
lowerback 8.95942 -0.247721 -6.9531
upperback 0.114996 -1.0329 0.30971
thorax -4.78889 -0.344997 4.3747
lowerneck -21.546 0.0215888 6.42114
upperneck 18.8615 -1.32359 -3.08693
head 9.44322 -0.505881 -2.31707
rclavicle -2.68359e-014 -1.43125e-014
rhumerus -11.2996 -28.3396 -8.44285
rradius 31.3437
rwrist 0.0316423
rhand -20.8248 -7.24062
rfingers 7.12502
rthumb 5.54347 -37.1481
lclavicle -2.68359e-014 -1.43125e-014
lhumerus -23.6463 28.6732 23.3344
lradius 38.5364
lwrist 8.71838
lhand -19.9249 -3.98579
lfingers 7.12502
lthumb 6.41235 25.8971
rfemur -15.6575 -12.0081 17.7273
rtibia 54.0696
rfoot -9.13839 -20.2306
rtoes -3.40308
lfemur -8.80591 -1.33883 -16.3492
ltibia 28.1358
lfoot -14.1507 18.069
ltoes -10.0645
794
root 2.35218 18.0656 -7.98992 4.60148 4.18989 -5.5562
lowerback 9.01213 -0.231975 -7.01569
upperback 0.105185 -1.02057 0.35978
thorax -4.82868 -0.335121 4.46254
lowerneck -21.5477 0.0357881 6.42292
upperneck 18.8403 -1.27298 -3.22218
head 9.43715 -0.498614 -2.35739
rclavicle 2.24627e-014 7.95139e-015
rhumerus -11.2613 -28.3659 -8.58193
rradius 31.3325
rwrist 0.0575945
rhand -20.8902 -7.25259
rfingers 7.12502
rthumb 5.48039 -37.1617
lclavicle 2.24627e-014 7.95139e-015
lhumerus -23.5248 28.7737 23.1025
lradius 38.5598
lwrist 8.75359
lhand -19.9563 -3.96685
lfingers 7.12502
lthumb 6.38202 25.917
rfemur -16.3812 -12.1442 17.5933
rtibia 53.6867
rfoot -9.73468 -20.2645
rtoes -3.77883
lfemur -8.58058 -1.35592 -16.615
ltibia 27.9817
lfoot -14.3076 18.1415
ltoes -9.92828
795
root 2.35854 18.055 -7.96297 4.59892 4.14471 -5.34375
lowerback 9.05996 -0.213496 -7.0752
upperback 0.103071 -1.00353 0.412142
thorax -4.85828 -0.323516 4.55031
lowerneck -21.5459 0.0409696 6.41266
upperneck 18.8294 -1.23275 -3.34868
head 9.43378 -0.495809 -2.39426
rclavicle -1.78906e-015 -6.36111e-015
rhumerus -11.2505 -28.3602 -8.71185
rradius 31.3407
rwrist 0.0694072
rhand -20.9354 -7.24146
rfingers 7.12502
rthumb 5.4367 -37.1517
lclavicle -1.78906e-015 -6.36111e-015
lhumerus -23.386 28.9021 22.883
lradius 38.568
lwrist 8.77837
lhand -19.9532 -3.96801
lfingers 7.12502
lthumb 6.38499 25.9157
rfemur -17.1235 -12.2677 17.4688
rtibia 53.2782
rfoot -10.2977 -20.2725
rtoes -4.14476
lfemur -8.35823 -1.36226 -16.8833
ltibia 27.8238
lfoot -14.4635 18.2186
ltoes -9.78476
796
root 2.36458 18.0447 -7.93574 4.59667 4.09198 -5.13657
lowerback 9.10755 -0.192104 -7.13033
upperback 0.104659 -0.981572 0.473661
thorax -4.88447 -0.309688 4.64467
lowerneck -21.5551 0.0466775 6.3949
upperneck 18.809 -1.1887 -3.48152
head 9.42927 -0.492728 -2.43156
rclavicle 5.1684e-015 -4.45278e-014
rhumerus -11.2482 -28.3128 -8.83414
rradius 31.3616
rwrist 0.0457873
rhand -20.9548 -7.2398
rfingers 7.12502
rthumb 5.41796 -37.1505
lclavicle 5.1684e-015 -4.45278e-014
lhumerus -23.2606 28.9871 22.6832
lradius 38.5978
lwrist 8.85644
lhand -19.9375 -3.96035
lfingers 7.12502
lthumb 6.40012 25.923
rfemur -17.8806 -12.3766 17.3627
rtibia 52.8443
rfoot -10.827 -20.2648
rtoes -4.49955
lfemur -8.13186 -1.35818 -17.1463
ltibia 27.6593
lfoot -14.6107 18.3029
ltoes -9.65076
797
root 2.37034 18.0347 -7.90809 4.6027 4.03284 -4.93708
lowerback 9.15115 -0.170776 -7.1739
upperback 0.107948 -0.95788 0.53985
thorax -4.907 -0.295394 4.73715
lowerneck -21.5422 0.0503497 6.37623
upperneck 18.7547 -1.14525 -3.61703
head 9.40894 -0.490747 -2.46884
rclavicle -5.96354e-015 5.56597e-015
rhumerus -11.2644 -28.2254 -8.95652
rradius 31.3958
rwrist 0.00634697
rhand -20.9401 -7.20408
rfingers 7.12502
rthumb 5.43214 -37.1145
lclavicle -5.96354e-015 5.56597e-015
lhumerus -23.1428 29.0366 22.4925
lradius 38.6293
lwrist 8.96069
lhand -19.9435 -3.93952
lfingers 7.12502
lthumb 6.39432 25.944
rfemur -18.6594 -12.4713 17.2797
rtibia 52.3835
rfoot -11.3022 -20.2499
rtoes -4.84475
lfemur -7.90997 -1.34639 -17.4003
ltibia 27.4867
lfoot -14.7417 18.3931
ltoes -9.53544
798
root 2.37592 18.0255 -7.87991 4.61407 3.96967 -4.7425
lowerback 9.19534 -0.148349 -7.2065
upperback 0.107655 -0.931703 0.607076
thorax -4.93422 -0.279825 4.82431
lowerneck -21.5065 0.0522404 6.34753
upperneck 18.6921 -1.10327 -3.7372
head 9.38188 -0.488317 -2.49886
rclavicle 7.35503e-015 2.54444e-014
rhumerus -11.2947 -28.1144 -9.08465
rradius 31.4348
rwrist -0.0414151
rhand -20.9255 -7.23141
rfingers 7.12502
rthumb 5.44631 -37.1414
lclavicle 7.35503e-015 2.54444e-014
lhumerus -23.0216 29.0741 22.3148
lradius 38.6551
lwrist 9.07036
lhand -19.9661 -3.87433
lfingers 7.12502
lthumb 6.37254 26.0098
rfemur -19.4534 -12.5585 17.215
rtibia 51.8918
rfoot -11.7122 -20.2329
rtoes -5.18006
lfemur -7.68688 -1.32429 -17.6485
ltibia 27.3012
lfoot -14.8468 18.4835
ltoes -9.45708
799
root 2.3812 18.0175 -7.85096 4.62677 3.90679 -4.56455
lowerback 9.24388 -0.126799 -7.21906
upperback 0.10261 -0.904814 0.67939
thorax -4.96929 -0.263862 4.90558
lowerneck -21.4774 0.058417 6.33054
upperneck 18.6296 -1.0573 -3.86812
head 9.35622 -0.484381 -2.53408
rclavicle -1.90833e-014 -5.56597e-015
rhumerus -11.3327 -28.0012 -9.21634
rradius 31.4578
rwrist -0.0395531
rhand -20.8857 -7.22633
rfingers 7.12502
rthumb 5.48474 -37.1354
lclavicle -1.90833e-014 -5.56597e-015
lhumerus -22.9093 29.0907 22.1424
lradius 38.6736
lwrist 9.16578
lhand -19.967 -3.83926
lfingers 7.12502
lthumb 6.3717 26.0449
rfemur -20.2521 -12.6372 17.1826
rtibia 51.3647
rfoot -12.0596 -20.2103
rtoes -5.48448
lfemur -7.45856 -1.29847 -17.8762
ltibia 27.1002
lfoot -14.9244 18.5711
ltoes -9.40323
800
root 2.38605 18.011 -7.82145 4.64265 3.84377 -4.39616
lowerback 9.28945 -0.108687 -7.22035
upperback 0.0990593 -0.880863 0.753438
thorax -5.00088 -0.249763 4.98266
lowerneck -21.4707 0.0708058 6.3082
upperneck 18.5905 -1.00637 -3.9825
head 9.3433 -0.476268 -2.56264
rclavicle 2.62396e-014 -5.56597e-015
rhumerus -11.3543 -27.923 -9.37556
rradius 31.4569
rwrist 0.00419368
rhand -20.86 -7.22525
rfingers 7.12502
rthumb 5.50948 -37.1336
lclavicle 2.62396e-014 -5.56597e-015
lhumerus -22.8091 29.082 21.9744
lradius 38.6949
lwrist 9.26831
lhand -20.0045 -3.77822
lfingers 7.12502
lthumb 6.33552 26.107
rfemur -21.0536 -12.7069 17.1743
rtibia 50.7996
rfoot -12.3364 -20.1868
rtoes -5.78702
lfemur -7.22483 -1.27453 -18.0917
ltibia 26.8779
lfoot -14.9706 18.6576
ltoes -9.37368
801
root 2.39044 18.0059 -7.79122 4.66064 3.78908 -4.2221
lowerback 9.33327 -0.0929912 -7.22308
upperback 0.104042 -0.859815 0.826835
thorax -5.02212 -0.237707 5.06013
lowerneck -21.5458 0.0946298 6.29458
upperneck 18.5947 -0.946901 -4.09959
head 9.3606 -0.463685 -2.59417
rclavicle -1.5704e-014 -3.97569e-015
rhumerus -11.3646 -27.8663 -9.54825
rradius 31.4398
rwrist 0.0579503
rhand -20.8365 -7.23373
rfingers 7.12502
rthumb 5.53218 -37.1415
lclavicle -1.5704e-014 -3.97569e-015
lhumerus -22.7014 29.1034 21.814
lradius 38.6924
lwrist 9.27393
lhand -19.997 -3.75775
lfingers 7.12502
lthumb 6.34273 26.1273
rfemur -21.8462 -12.7734 17.1697
rtibia 50.1957
rfoot -12.5555 -20.1462
rtoes -6.0181
lfemur -6.98251 -1.25746 -18.3113
ltibia 26.6322
lfoot -14.9947 18.7379
ltoes -9.33819
